# File created by Blade
# Date/Time:  Tue Apr 07 20:13:45 2015
#---------------------------------------------------------
:version 1.10
:name HOM
:units
  mass 1.0
  length 1.000000
  angle deg
:documentation
     Acclaim Skeleton File
:root
   axis xyz
   order TX TY TZ RX RY RZ
   position 0.000000 0.000000 0.000000
   orientation 0 0 0
:bonedata
   begin
      id 1
      name Spine_dum
      direction 0.000000 1.000000 0.000000
      length 4.885285
      axis 0.0 0.0 0.0 xyz
   end
   begin
      id 2
      name LeftUpLeg_dum
      direction 1.000000 0.000000 0.000000
      length 2.672193
      axis 0.0 0.0 0.0 xyz
   end
   begin
      id 3
      name RightUpLeg_dum
      direction -1.000000 0.000000 0.000000
      length 2.672193
      axis 0.0 0.0 0.0 xyz
   end
   begin
      id 4
      name Spine
      direction 0.000000 1.000000 0.000000
      length 0.000000
      axis 0.0 0.0 0.0 xyz
      dof rx ry rz
   end
   begin
      id 5
      name Spine_dum1
      direction 0.000000 1.000000 0.000000
      length 16.494159
      axis 0.0 0.0 0.0 xyz
   end
   begin
      id 6
      name Spine_dum2
      direction 0.000000 1.000000 0.000000
      length 10.663448
      axis 0.0 0.0 0.0 xyz
   end
   begin
      id 7
      name Spine_dum3
      direction 0.000000 1.000000 0.000000
      length 10.663448
      axis 0.0 0.0 0.0 xyz
   end
   begin
      id 8
      name Head
      direction 0.000000 1.000000 0.000000
      length 4.527550
      axis 0.0 0.0 0.0 xyz
      dof rx ry rz
   end
   begin
      id 9
      name LeftShoulder
      direction 1.000000 0.000000 0.000000
      length 7.531907
      axis 0.0 0.0 -90.0 xyz
      dof rx ry rz
   end
   begin
      id 10
      name LeftArm
      direction 1.000000 0.000000 0.000000
      length 10.229199
      axis 0.0 0.0 -90.0 xyz
      dof rx ry rz
   end
   begin
      id 11
      name LeftForeArm
      direction 1.000000 0.000000 0.000000
      length 8.673495
      axis 0.0 0.0 -90.0 xyz
      dof ry rz rx
   end
   begin
      id 12
      name LeftHand
      direction 0.000000 0.000000 0.000000
      length 0.000000
      axis 0.0 0.0 -90.0 xyz
      dof rx ry rz
   end
   begin
      id 13
      name LeftHand_dum1
      direction 0.000000 0.000000 0.000000
      length 0.000000
      axis 0.0 0.0 -90.0 xyz
   end
   begin
      id 14
      name LeftHand_dum2
      direction 1.000000 0.000000 0.000000
      length 3.937000
      axis 0.0 0.0 -90.0 xyz
   end
   begin
      id 15
      name LeftHandThumb1
      direction 0.000000 0.000000 1.000000
      length 3.937000
      axis 0.0 0.0 -90.0 xyz
      dof rx rz ry
   end
   begin
      id 16
      name RightShoulder
      direction -1.000000 0.000000 0.000000
      length 7.531907
      axis 0.0 0.0 90.0 xyz
      dof rx ry rz
   end
   begin
      id 17
      name RightArm
      direction -1.000000 0.000000 0.000000
      length 10.229199
      axis 0.0 0.0 90.0 xyz
      dof rx ry rz
   end
   begin
      id 18
      name RightForeArm
      direction -1.000000 0.000000 0.000000
      length 8.673495
      axis 0.0 0.0 90.0 xyz
      dof ry rz rx
   end
   begin
      id 19
      name RightHand
      direction 0.000000 0.000000 0.000000
      length 0.000000
      axis 0.0 0.0 90.0 xyz
      dof rx ry rz
   end
   begin
      id 20
      name RightHand_dum1
      direction 0.000000 0.000000 0.000000
      length 0.000000
      axis 0.0 0.0 90.0 xyz
   end
   begin
      id 21
      name RightHand_dum2
      direction -1.000000 0.000000 0.000000
      length 3.937000
      axis 0.0 0.0 90.0 xyz
   end
   begin
      id 22
      name RightHandThumb1
      direction 0.000000 0.000000 1.000000
      length 3.937000
      axis 0.0 0.0 90.0 xyz
      dof rx rz ry
   end
   begin
      id 23
      name LeftUpLeg
      direction 0.000000 -1.000000 0.000000
      length 16.263388
      axis 0.0 0.0 0.0 xyz
      dof rx ry rz
   end
   begin
      id 24
      name LeftLeg
      direction 0.000000 -1.000000 0.000000
      length 14.328163
      axis 0.0 0.0 0.0 xyz
      dof rx ry rz
   end
   begin
      id 25
      name LeftFoot
      direction 0.000000 -0.258819 0.965926
      length 5.031290
      axis 15.0 0.0 0.0 xyz
      dof rx ry rz
   end
   begin
      id 26
      name LeftToeBase
      direction 0.000000 0.000000 1.000000
      length 2.952750
      axis 0.0 0.0 0.0 xyz
      dof rx ry rz
   end
   begin
      id 27
      name RightUpLeg
      direction 0.000000 -1.000000 0.000000
      length 16.263388
      axis 0.0 0.0 0.0 xyz
      dof rx ry rz
   end
   begin
      id 28
      name RightLeg
      direction 0.000000 -1.000000 0.000000
      length 14.328163
      axis 0.0 0.0 0.0 xyz
      dof rx ry rz
   end
   begin
      id 29
      name RightFoot
      direction 0.000000 -0.258819 0.965926
      length 5.031290
      axis 15.0 0.0 0.0 xyz
      dof rx ry rz
   end
   begin
      id 30
      name RightToeBase
      direction 0.000000 0.000000 1.000000
      length 2.952750
      axis 0.0 0.0 0.0 xyz
      dof rx ry rz
   end
:hierarchy
   begin
      root Spine_dum LeftUpLeg_dum RightUpLeg_dum
      Spine_dum Spine
      LeftUpLeg_dum LeftUpLeg
      RightUpLeg_dum RightUpLeg
      Spine Spine_dum1 Spine_dum2 Spine_dum3
      Spine_dum1 Head
      Spine_dum2 LeftShoulder
      Spine_dum3 RightShoulder
      LeftShoulder LeftArm
      LeftArm LeftForeArm
      LeftForeArm LeftHand
      LeftHand LeftHand_dum1 LeftHand_dum2
      LeftHand_dum1 LeftHandThumb1
      RightShoulder RightArm
      RightArm RightForeArm
      RightForeArm RightHand
      RightHand RightHand_dum1 RightHand_dum2
      RightHand_dum1 RightHandThumb1
      LeftUpLeg LeftLeg
      LeftLeg LeftFoot
      LeftFoot LeftToeBase
      RightUpLeg RightLeg
      RightLeg RightFoot
      RightFoot RightToeBase
   end

# File created by Blade
# Date/Time:  Tue Apr 07 20:13:55 2015
# Frame Rate: 120.000 fps
#------------------------------------------------------
:FULLY-SPECIFIED
:DEGREES
296
root 3.425160 32.553445 -10.626025 5.160576 15.520367 -2.071695
Spine 3.154842 -4.365950 -0.525913
Head 8.493526 9.132101 2.350426
LeftShoulder -8.304382 40.945364 15.374395
LeftArm 64.306619 17.736562 -64.148345
LeftForeArm -5.616740 0.000000 21.651915
LeftHand 7.632567 -0.000000 -2.089145
LeftHandThumb1 -26.253704 0.000000 33.147579
RightShoulder 1.580248 -1.130794 -17.714377
RightArm 24.794614 -13.550902 80.853339
RightForeArm -2.791408 -0.000000 26.550308
RightHand 0.084328 0.000000 8.684886
RightHandThumb1 -24.326973 -0.000000 -32.862282
LeftUpLeg -12.712956 -10.582323 0.365627
LeftLeg 10.241040 -0.000000 -0.000000
LeftFoot -10.367200 10.266855 -12.313687
LeftToeBase -4.039593 -0.000000 0.000000
RightUpLeg -54.699521 3.760589 -4.353425
RightLeg 80.854714 -0.000000 -0.000000
RightFoot 18.418047 -4.758816 9.471891
RightToeBase 7.551395 -0.000000 -0.000000
297
root 3.425837 32.563294 -10.635913 4.717954 15.637727 -2.483496
Spine 3.528961 -4.610931 -0.124935
Head 8.438617 9.345751 2.215674
LeftShoulder -8.041603 40.604217 15.591232
LeftArm 64.538822 18.130189 -63.706804
LeftForeArm -6.149925 -0.000000 22.322508
LeftHand 7.499100 -0.000000 -2.514728
LeftHandThumb1 -26.253704 0.000000 33.147579
RightShoulder 1.671752 -1.105816 -17.682427
RightArm 25.021668 -14.110489 80.626841
RightForeArm -1.865226 0.000000 26.857748
RightHand -0.155221 -0.000000 9.524672
RightHandThumb1 -24.326973 -0.000000 -32.862282
LeftUpLeg -12.551666 -11.079613 0.700880
LeftLeg 10.536079 -0.000000 -0.000000
LeftFoot -10.395715 10.883673 -11.720156
LeftToeBase -4.657726 -0.000000 0.000000
RightUpLeg -56.229728 4.017952 -4.068154
RightLeg 82.815680 -0.000000 -0.000000
RightFoot 18.596303 -4.676277 9.573666
RightToeBase 9.042765 -0.000000 -0.000000
298
root 3.422066 32.569974 -10.649764 4.322694 15.728118 -2.900919
Spine 3.865445 -4.773072 0.272799
Head 8.346991 9.527568 2.094083
LeftShoulder -7.747261 40.338694 15.851889
LeftArm 64.816365 18.393803 -63.431099
LeftForeArm -6.859569 -0.000000 22.972267
LeftHand 7.383014 0.000000 -2.941379
LeftHandThumb1 -26.253704 0.000000 33.147579
RightShoulder 1.757171 -1.122993 -17.635243
RightArm 25.253776 -14.736770 80.226991
RightForeArm -0.773573 -0.000000 27.226835
RightHand 0.021438 -0.000000 10.878860
RightHandThumb1 -24.326973 -0.000000 -32.862282
LeftUpLeg -12.465132 -11.543177 1.056142
LeftLeg 10.865667 -0.000000 -0.000000
LeftFoot -10.494176 11.462375 -11.215707
LeftToeBase -4.721253 -0.000000 0.000000
RightUpLeg -57.834453 4.275642 -3.767742
RightLeg 84.685022 -0.000000 -0.000000
RightFoot 18.752708 -4.612525 9.385390
RightToeBase 9.897167 -0.000000 -0.000000
299
root 3.416437 32.574506 -10.660905 3.856529 15.782263 -3.325214
Spine 4.291005 -4.913244 0.641477
Head 8.210528 9.713069 2.038249
LeftShoulder -7.450586 40.065574 16.123406
LeftArm 65.146961 18.723678 -63.063939
LeftForeArm -7.071508 -0.000000 23.612329
LeftHand 7.199339 -0.000000 -3.768995
LeftHandThumb1 -26.253704 0.000000 33.147579
RightShoulder 1.853852 -1.081869 -17.570624
RightArm 25.509810 -15.535430 79.794363
RightForeArm 0.449794 -0.000000 27.556872
RightHand -0.017757 -0.000000 11.408373
RightHandThumb1 -24.326973 -0.000000 -32.862282
LeftUpLeg -12.300171 -11.874460 1.382580
LeftLeg 11.190170 -0.000000 -0.000000
LeftFoot -10.516678 11.961511 -10.707225
LeftToeBase -5.195714 -0.000000 0.000000
RightUpLeg -59.386487 4.562674 -3.456399
RightLeg 86.486558 -0.000000 -0.000000
RightFoot 18.847612 -4.497962 9.015374
RightToeBase 11.121635 -0.000000 -0.000000
300
root 3.412862 32.576223 -10.667731 3.408102 15.812496 -3.693123
Spine 4.709986 -5.048397 0.955929
Head 8.040136 9.904773 1.939423
LeftShoulder -7.215191 39.851440 16.338883
LeftArm 65.513361 19.043779 -62.641703
LeftForeArm -7.883196 0.000000 24.262577
LeftHand 7.065483 -0.000000 -4.296035
LeftHandThumb1 -26.253704 0.000000 33.147579
RightShoulder 1.981088 -1.096329 -17.496408
RightArm 25.777639 -16.285510 79.265452
RightForeArm 1.621073 -0.000000 28.027147
RightHand 0.041453 -0.000000 12.590400
RightHandThumb1 -24.326973 -0.000000 -32.862282
LeftUpLeg -12.125803 -12.170346 1.647832
LeftLeg 11.503987 -0.000000 -0.000000
LeftFoot -10.502847 12.523845 -9.928785
LeftToeBase -5.390455 -0.000000 0.000000
RightUpLeg -60.969693 4.846730 -3.216056
RightLeg 88.229911 -0.000000 -0.000000
RightFoot 19.013119 -4.356541 8.729944
RightToeBase 12.559312 -0.000000 -0.000000
301
root 3.409680 32.576448 -10.673558 2.910522 15.854917 -4.035444
Spine 5.207623 -5.195652 1.218875
Head 7.830403 10.134222 1.904694
LeftShoulder -6.924410 39.599877 16.631706
LeftArm 65.818925 19.335323 -62.452195
LeftForeArm -8.568002 -0.000000 24.802633
LeftHand 7.169528 -0.000000 -4.528096
LeftHandThumb1 -26.253704 0.000000 33.147579
RightShoulder 2.097992 -1.066107 -17.402756
RightArm 26.113659 -17.118275 78.662354
RightForeArm 2.598887 -0.000000 28.439936
RightHand -0.031265 0.000000 13.511796
RightHandThumb1 -24.326973 -0.000000 -32.862282
LeftUpLeg -11.872999 -12.437531 1.862362
LeftLeg 11.777933 -0.000000 -0.000000
LeftFoot -10.434732 13.032996 -9.164112
LeftToeBase -5.443296 -0.000000 0.000000
RightUpLeg -62.492699 5.093554 -2.995592
RightLeg 89.917077 -0.000000 -0.000000
RightFoot 19.061393 -4.187177 8.367600
RightToeBase 13.588126 -0.000000 -0.000000
302
root 3.407844 32.574616 -10.674831 2.371831 15.849255 -4.358812
Spine 5.755206 -5.272892 1.460446
Head 7.601349 10.301061 1.839316
LeftShoulder -6.632945 39.347986 16.881801
LeftArm 66.151462 19.622667 -62.102126
LeftForeArm -9.297841 -0.000000 25.417212
LeftHand 7.212439 -0.000000 -4.926922
LeftHandThumb1 -26.253704 0.000000 33.147579
RightShoulder 2.201500 -1.091785 -17.303842
RightArm 26.440413 -17.908102 78.102448
RightForeArm 3.803993 -0.000000 28.900699
RightHand 0.190883 -0.000000 14.346397
RightHandThumb1 -24.326973 -0.000000 -32.862282
LeftUpLeg -11.535639 -12.715706 2.041908
LeftLeg 11.993302 -0.000000 -0.000000
LeftFoot -10.426660 13.644660 -8.499006
LeftToeBase -5.744587 -0.000000 0.000000
RightUpLeg -63.988208 5.399895 -2.808410
RightLeg 91.511721 -0.000000 -0.000000
RightFoot 19.200671 -3.977216 7.983536
RightToeBase 14.969220 -0.000000 -0.000000
303
root 3.405857 32.571700 -10.674692 1.837908 15.834183 -4.665607
Spine 6.308887 -5.363081 1.674436
Head 7.362306 10.523391 1.802103
LeftShoulder -6.413183 39.222610 17.057082
LeftArm 66.621021 19.860251 -61.621708
LeftForeArm -10.068003 -0.000000 26.046576
LeftHand 7.238645 -0.000000 -5.233525
LeftHandThumb1 -26.253704 0.000000 33.147579
RightShoulder 2.319836 -1.105117 -17.213301
RightArm 26.815280 -18.695592 77.530380
RightForeArm 5.087830 -0.000000 29.323024
RightHand 0.284202 -0.000000 14.957508
RightHandThumb1 -24.326973 -0.000000 -32.862282
LeftUpLeg -11.187133 -12.880198 2.177671
LeftLeg 12.194886 -0.000000 -0.000000
LeftFoot -10.166461 14.212907 -7.334359
LeftToeBase -6.390695 -0.000000 0.000000
RightUpLeg -65.485393 5.675614 -2.625927
RightLeg 93.008737 -0.000000 -0.000000
RightFoot 19.430190 -3.709291 7.600461
RightToeBase 15.497318 -0.000000 -0.000000
304
root 3.406659 32.568600 -10.669347 1.220708 15.844346 -4.908574
Spine 6.971128 -5.472045 1.819802
Head 7.110735 10.708994 1.721151
LeftShoulder -6.184702 39.050168 17.185567
LeftArm 67.040798 20.060460 -61.104419
LeftForeArm -10.713011 -0.000000 26.710756
LeftHand 7.331785 0.000000 -5.661014
LeftHandThumb1 -26.253704 0.000000 33.147579
RightShoulder 2.461289 -1.065202 -17.130013
RightArm 27.090505 -19.305203 77.072363
RightForeArm 6.077645 -0.000000 29.802290
RightHand 0.223122 0.000000 15.516564
RightHandThumb1 -24.326973 -0.000000 -32.862282
LeftUpLeg -10.702770 -13.194822 2.240555
LeftLeg 12.362631 -0.000000 -0.000000
LeftFoot -10.103071 14.790287 -6.568888
LeftToeBase -6.570020 -0.000000 0.000000
RightUpLeg -66.872378 5.898844 -2.485307
RightLeg 94.415483 -0.000000 -0.000000
RightFoot 19.803197 -3.547225 7.302035
RightToeBase 16.293214 -0.000000 -0.000000
